<?xml version="1.0" encoding="UTF-8" standalone="no"?>
<svg width="29px" height="29px" viewBox="0 0 29 29" version="1.1" xmlns="http://www.w3.org/2000/svg" xmlns:xlink="http://www.w3.org/1999/xlink">
    <!-- Generator: Sketch 3.6.1 (26313) - http://www.bohemiancoding.com/sketch -->
    <title>Edit</title>
    <desc>Created with Sketch.</desc>
    <defs></defs>
    <g id="Page-1" stroke="none" stroke-width="1" fill="none" fill-rule="evenodd">
        <g id="Breast-Health-1" transform="translate(-135.000000, -570.000000)" fill="#8C8C8C">
            <g id="Tab-Bar-Light" transform="translate(0.000000, 560.000000)">
                <g id="For-You" transform="translate(135.000000, 11.000000)">
                    <path d="M0,4.8718508 L18.2580385,4.8718508 L17.040836,6.08905337 L1.21720257,6.08905337 L1.21720257,26.781497 L21.9096462,26.781497 L21.9096462,10.9578636 L23.1268488,9.74066108 L23.1268488,27.9986996 L0,27.9986996 L0,4.8718508 Z M22.6367163,1.69156016 L11.0124566,13.315645 L9.17704717,18.8217905 L14.0714723,17.5982026 L26.3075352,5.3623238 L25.0839289,4.13873592 L13.4596692,15.7628208 L11.6242597,16.3746147 L12.2360629,14.5392329 L23.8603226,2.91514804 L22.6367163,1.69156016 Z M23.2485195,1.07976622 L26.9193384,4.75052986 L28.1128106,3.55707553 C28.4673427,3.20254877 28.4667048,2.62710937 28.1153399,2.27574981 L25.7233368,-0.116217374 C25.3702016,-0.469347266 24.7971462,-0.468837194 24.4419918,-0.113688109 L23.2485195,1.07976622 Z" id="Edit"></path>
                </g>
            </g>
        </g>
    </g>
</svg>