<?xml version="1.0" encoding="UTF-8" standalone="no"?>
<svg width="29px" height="25px" viewBox="0 0 29 25" version="1.1" xmlns="http://www.w3.org/2000/svg" xmlns:xlink="http://www.w3.org/1999/xlink">
    <!-- Generator: Sketch 3.6.1 (26313) - http://www.bohemiancoding.com/sketch -->
    <title>medical</title>
    <desc>Created with Sketch.</desc>
    <defs></defs>
    <g id="Page-1" stroke="none" stroke-width="1" fill="none" fill-rule="evenodd">
        <g id="Breast-Health-1" transform="translate(-260.000000, -572.000000)" fill="#8C8C8C">
            <g id="medical" transform="translate(260.000000, 572.000000)">
                <path d="M10.1995942,18.6789867 L12.0814,18.6789867 C12.0814,18.6789867 12.3430725,18.632309 12.3430725,18.9090532 L12.3430725,20.7969269 C12.3430725,21.0824751 12.5794435,21.3160299 12.8684348,21.3160299 L16.0600319,21.3160299 C16.3489391,21.3160299 16.5853942,21.0824751 16.5853942,20.7969269 L16.5853942,18.9313953 C16.5853942,18.7208472 16.8670725,18.6789867 16.8670725,18.6789867 L18.7288725,18.6789867 C19.0177797,18.6789867 19.2542348,18.4454319 19.2542348,18.1598837 L19.2542348,15.0063123 C19.2542348,14.7208472 19.0177797,14.4872093 18.7288725,14.4872093 L16.8194957,14.4872093 C16.6175043,14.4872093 16.5853942,14.2303156 16.5853942,14.2303156 L16.5853942,12.3692691 C16.5853942,12.083804 16.3489391,11.8501661 16.0600319,11.8501661 L12.8684348,11.8501661 C12.5794435,11.8501661 12.3430725,12.083804 12.3430725,12.3692691 L12.3430725,14.2468439 C12.3430725,14.2468439 12.3558493,14.4872093 12.1122493,14.4872093 L10.1995942,14.4872093 C9.9106029,14.4872093 9.67423188,14.7208472 9.67423188,15.0063123 L9.67423188,18.1598837 C9.67423188,18.4454319 9.9106029,18.6789867 10.1995942,18.6789867 L10.1995942,18.6789867 Z" id="Fill-1"></path>
                <path d="M27.4301333,5.21636213 L22.5580493,5.21636213 C22.3144493,5.21636213 22.3058754,4.99576412 22.3058754,4.99576412 L22.3058754,1.14435216 C22.3058754,0.544767442 21.812371,0.0571428571 21.2055565,0.0571428571 L7.72248986,0.0571428571 C7.11601159,0.0571428571 6.62217101,0.544767442 6.62217101,1.14435216 L6.62217101,4.97923588 C6.62217101,5.22284053 6.34604058,5.21636213 6.34604058,5.21636213 L1.49824928,5.21636213 C0.672127536,5.21636213 0,5.88048173 0,6.6967608 L0,23.5196013 C0,24.3358804 0.672127536,25 1.49824928,25 L27.4301333,25 C28.2562551,25 28.9283826,24.3358804 28.9283826,23.5196013 L28.9283826,6.6967608 C28.9283826,5.88048173 28.2562551,5.21636213 27.4301333,5.21636213 L27.4301333,5.21636213 Z M7.96709855,1.68189369 C7.96709855,1.41619601 8.17598261,1.38604651 8.17598261,1.38604651 L20.6808667,1.38604651 C20.6808667,1.38604651 20.9609478,1.43538206 20.9609478,1.69003322 L20.9609478,4.96818937 C20.9609478,5.12392027 20.9274928,5.21636213 20.669687,5.21636213 L8.21801159,5.21636213 C8.21801159,5.21636213 7.96709855,5.22284053 7.96709855,5.00124585 L7.96709855,1.68189369 Z M27.5834551,23.5196013 C27.5834551,23.6017442 27.5131826,23.6710963 27.4301333,23.6710963 L1.49824928,23.6710963 C1.4152,23.6710963 1.34492754,23.6017442 1.34492754,23.5196013 L1.34492754,9.74651163 C1.34492754,9.59144518 1.53237681,9.57101329 1.53237681,9.57101329 L27.3913826,9.57101329 C27.3913826,9.57101329 27.5834551,9.58039867 27.5834551,9.77151163 L27.5834551,23.5196013 L27.5834551,23.5196013 Z M27.2318406,8.24210963 L1.66964348,8.24210963 C1.66964348,8.24210963 1.34492754,8.25996678 1.34492754,8.00232558 L1.34492754,6.6967608 C1.34492754,6.614701 1.4152,6.54526578 1.49824928,6.54526578 L27.4301333,6.54526578 C27.5131826,6.54526578 27.5834551,6.614701 27.5834551,6.6967608 L27.5834551,7.98579734 C27.5834551,7.98579734 27.5848,8.24210963 27.2318406,8.24210963 L27.2318406,8.24210963 Z" id="Fill-3"></path>
            </g>
        </g>
    </g>
</svg>