<?xml version="1.0" encoding="UTF-8" standalone="no"?>
<svg width="192px" height="185px" viewBox="0 0 192 185" version="1.1" xmlns="http://www.w3.org/2000/svg" xmlns:xlink="http://www.w3.org/1999/xlink">
    <!-- Generator: Sketch 3.6.1 (26313) - http://www.bohemiancoding.com/sketch -->
    <title>Group-6</title>
    <desc>Created with Sketch.</desc>
    <defs></defs>
    <g id="Page-1" stroke="none" stroke-width="1" fill="none" fill-rule="evenodd">
        <g id="logo" transform="translate(-2.000000, -5.000000)">
            <g id="Page-1">
                <g id="Breast-Health-1">
                    <g id="Group-6">
                        <g id="Group-5" transform="translate(85.814595, 96.144205) rotate(-9.000000) translate(-85.814595, -96.144205) translate(12.814595, 10.644205)">
                            <path d="M30.4527736,25.3735213 C30.4527736,23.6041051 31.7844313,21.6507682 33.4309056,21.0091439 L62.8804217,9.53278693 L131.308649,9.53278693 C133.072199,9.53278693 134.50184,10.9586598 134.50184,12.7380848 L134.50184,139.324079 C134.50184,141.094317 133.070566,142.529377 131.302462,142.529377 L33.6521511,142.529377 C31.8851837,142.529377 30.4527736,141.093834 30.4527736,139.325566 L30.4527736,25.3735213 L30.4527736,25.3735213 Z" id="Rectangle-222" stroke="#FF2D55" stroke-width="3.2" transform="translate(82.477307, 76.031082) rotate(10.000000) translate(-82.477307, -76.031082) "></path>
                            <rect id="Rectangle-222" stroke="#FF2D55" stroke-width="3.2" fill="#FFFFFF" transform="translate(68.326923, 85.797235) rotate(-8.000000) translate(-68.326923, -85.797235) " x="10.3888889" y="8.01843319" width="115.876068" height="155.557604" rx="3.2"></rect>
                            <path d="M25.9617918,36.3328752 L16.6273513,30.0367156 C15.8948583,29.5426428 14.9069091,29.7423211 14.4116366,30.4765928 C13.9129112,31.2159836 14.105378,32.2044143 14.833811,32.6957486 L25.2749811,39.7384067 C25.3848257,39.8598198 25.5154871,39.9665879 25.6656053,40.0532586 C26.4326368,40.4961045 27.4119799,40.2358224 27.8566027,39.465713 L32.9024297,30.7260843 C33.3454527,29.9587459 33.0881396,28.9807852 32.3157605,28.534852 C31.548729,28.0920061 30.5693859,28.3522882 30.124763,29.1223976 L25.9617918,36.3328752 L25.9617918,36.3328752 Z" id="Combined-Shape" fill="#FF2D55" transform="translate(23.626429, 34.294055) scale(-1, 1) rotate(-340.000000) translate(-23.626429, -34.294055) "></path>
                            <path d="M29.1583726,58.7844882 L19.8239321,52.4883286 C19.0914391,51.9942558 18.1034899,52.1939341 17.6082174,52.9282058 C17.109492,53.6675967 17.3019588,54.6560273 18.0303918,55.1473616 L28.4715619,62.1900197 C28.5814065,62.3114328 28.7120679,62.4182009 28.8621861,62.5048716 C29.6292176,62.9477175 30.6085607,62.6874354 31.0531835,61.917326 L36.0990105,53.1776973 C36.5420335,52.4103589 36.2847204,51.4323982 35.5123413,50.986465 C34.7453098,50.5436191 33.7659667,50.8039012 33.3213438,51.5740106 L29.1583726,58.7844882 L29.1583726,58.7844882 Z" id="Combined-Shape" fill="#FF2D55" transform="translate(26.823010, 56.745668) scale(-1, 1) rotate(-340.000000) translate(-26.823010, -56.745668) "></path>
                            <g id="cross" transform="translate(29.500000, 79.500000) rotate(-353.000000) translate(-29.500000, -79.500000) translate(20.000000, 70.000000)" fill="#FF2D55">
                                <rect id="Combined-Shape" transform="translate(9.456221, 9.483834) rotate(-238.000000) translate(-9.456221, -9.483834) " x="0.378593408" y="7.72236972" width="18.1552561" height="3.5229283" rx="3.2"></rect>
                                <rect id="Combined-Shape" transform="translate(9.456221, 9.483834) rotate(-330.000000) translate(-9.456221, -9.483834) " x="0.378592476" y="7.72236988" width="18.1552561" height="3.5229283" rx="3.2"></rect>
                            </g>
                            <path d="M34.7523896,102.084027 L25.4179491,95.7878678 C24.6854561,95.293795 23.6975069,95.4934733 23.2022344,96.2277449 C22.7035089,96.9671358 22.8959758,97.9555665 23.6244087,98.4469007 L34.0655789,105.489559 C34.1754235,105.610972 34.3060849,105.71774 34.4562031,105.804411 C35.2232346,106.247257 36.2025777,105.986975 36.6472005,105.216865 L41.6930275,96.4772364 C42.1360505,95.7098981 41.8787374,94.7319374 41.1063583,94.2860041 C40.3393268,93.8431583 39.3599837,94.1034404 38.9153608,94.8735498 L34.7523896,102.084027 L34.7523896,102.084027 Z" id="Combined-Shape" fill="#FF2D55" transform="translate(32.417027, 100.045208) scale(-1, 1) rotate(-340.000000) translate(-32.417027, -100.045208) "></path>
                            <path d="M37.9489722,122.931954 L28.6145317,116.635794 C27.8820387,116.141721 26.8940895,116.3414 26.398817,117.075671 C25.9000915,117.815062 26.0925584,118.803493 26.8209913,119.294827 L37.2621615,126.337485 C37.3720061,126.458898 37.5026675,126.565666 37.6527857,126.652337 C38.4198172,127.095183 39.3991603,126.834901 39.8437831,126.064791 L44.8896101,117.325163 C45.3326331,116.557824 45.0753199,115.579864 44.3029409,115.13393 C43.5359094,114.691085 42.5565663,114.951367 42.1119434,115.721476 L37.9489722,122.931954 L37.9489722,122.931954 Z" id="Combined-Shape" fill="#FF2D55" transform="translate(35.613609, 120.893134) scale(-1, 1) rotate(-340.000000) translate(-35.613609, -120.893134) "></path>
                            <g id="listLines" transform="translate(44.000000, 22.000000)" fill="#FF2D55">
                                <rect id="Rectangle-227" transform="translate(29.995122, 5.726004) rotate(-8.000000) translate(-29.995122, -5.726004) " x="0.426746203" y="4.12231743" width="59.1367521" height="3.20737327" rx="3.2"></rect>
                                <rect id="Rectangle-227" transform="translate(33.191703, 28.177617) rotate(-8.000000) translate(-33.191703, -28.177617) " x="3.62332739" y="26.5739303" width="59.1367521" height="3.20737327" rx="3.2"></rect>
                                <rect id="Rectangle-227" transform="translate(36.388285, 49.827387) rotate(-8.000000) translate(-36.388285, -49.827387) " x="6.81990853" y="48.2237" width="59.1367521" height="3.20737327" rx="3.2"></rect>
                                <rect id="Rectangle-227" transform="translate(38.785721, 71.477156) rotate(-8.000000) translate(-38.785721, -71.477156) " x="9.2173445" y="69.8734696" width="59.1367521" height="3.20737327" rx="3.2"></rect>
                                <rect id="Rectangle-227" transform="translate(41.982302, 92.325082) rotate(-8.000000) translate(-41.982302, -92.325082) " x="12.4139258" y="90.7213958" width="59.1367521" height="3.20737327" rx="3.2"></rect>
                            </g>
                        </g>
                        <g id="Group-7" transform="translate(149.842261, 94.356851) rotate(-7.000000) translate(-149.842261, -94.356851) translate(98.842261, 36.356851)">
                            <path d="M-14.5565568,57.3964203 L2.00168141,53.3476871 C3.72354672,52.9266657 6.54699927,52.5853604 8.31193781,52.5853604 L99.2948692,52.5853604 C100.681174,52.5853604 102.067478,50.9816738 103.453783,50.9816738 L114.615046,50.9816738 C116.380567,50.9816738 117.811804,52.4160354 117.811804,54.1860022 L117.811804,60.6068384 C117.811804,62.3765401 116.370131,63.8111668 114.601837,63.8111668 L102.762176,63.8111668 C101.484073,63.8111668 100.20597,62.2074802 98.9278672,62.2074802 L8.32210343,62.2074802 C6.55329605,62.2074802 3.73581968,61.8691758 2.00168141,61.4451535 L-14.5565568,57.3964203 L-14.5565568,57.3964203 Z" id="Rectangle-240" stroke="#FFFFFF" stroke-width="6.4" fill="#FFFFFF" transform="translate(51.627624, 57.396420) rotate(-50.000000) translate(-51.627624, -57.396420) "></path>
                            <g id="Group-4" transform="translate(51.120756, 58.210014) rotate(-50.000000) translate(-51.120756, -58.210014) translate(-17.379244, 50.210014)">
                                <path d="M3.80526382,7.21658986 L20.363502,3.1678567 C22.0853673,2.74683526 24.9088199,2.40552995 26.6737584,2.40552995 L117.65669,2.40552995 C119.042994,2.40552995 120.306042,2.21067537 121.692347,2.21067537 L132.85361,2.21067537 C134.619131,2.21067537 136.085687,3.64512636 136.129044,5.40600744 L136.218205,9.02717228 C136.261657,10.7919055 134.855209,12.2225044 133.086914,12.2225044 L121.247254,12.2225044 C119.969151,12.2225044 118.567791,12.0276498 117.289688,12.0276498 L26.683924,12.0276498 C24.9151167,12.0276498 22.0976403,11.6893454 20.363502,11.265323 L3.80526382,7.21658986 L3.80526382,7.21658986 Z" id="Rectangle-240" stroke="#FF2D55" stroke-width="3.2"></path>
                                <path d="M5.52966537,2.25789323 L8.1064488,12.3366315 L2.95288193,12.3366315 L5.52966537,2.25789323 Z" id="Triangle-5" fill="#FF2D55" transform="translate(5.529665, 7.297262) rotate(269.000000) translate(-5.529665, -7.297262) "></path>
                                <rect id="Rectangle-241" fill="#FF2D55" x="105.371033" y="0.801843318" width="12.0205237" height="12.8294931"></rect>
                                <rect id="Rectangle-242" fill="#FF2D55" x="119.645405" y="-1.98951966e-13" width="17.2795028" height="15.235023" rx="3.2"></rect>
                            </g>
                        </g>
                    </g>
                </g>
            </g>
        </g>
    </g>
</svg>