<?xml version="1.0" encoding="UTF-8" standalone="no"?>
<svg width="29px" height="29px" viewBox="0 0 29 29" version="1.1" xmlns="http://www.w3.org/2000/svg" xmlns:xlink="http://www.w3.org/1999/xlink">
    <!-- Generator: Sketch 3.6.1 (26313) - http://www.bohemiancoding.com/sketch -->
    <title>Group 2</title>
    <desc>Created with Sketch.</desc>
    <defs></defs>
    <g id="Page-1" stroke="none" stroke-width="1" fill="none" fill-rule="evenodd">
        <g id="Breast-Health-7" transform="translate(-20.000000, -385.000000)">
            <g id="Group-2" transform="translate(20.000000, 385.000000)">
                <rect id="Rectangle-1193" fill="#FF2D55" x="0" y="0" width="29" height="29" rx="6"></rect>
                <path d="M15.0702125,6.09724347 C18.0315107,6.46713494 20.3223967,8.98469453 20.3223967,12.0542947 L20.3223967,16.5548051 L22.8735522,19.9563459 C23.2050086,20.3982878 23.0249684,20.7565525 22.4704881,20.7565525 L17.6963046,20.7565525 L10.3432468,20.7565525 L5.56906325,20.7565525 C5.01500067,20.7565525 4.83452317,20.3983139 5.16599917,19.9563459 L7.71715471,16.5548051 L7.71715471,12.0542947 C7.71715471,8.99399727 10.0073863,6.46848061 12.9693388,6.09738883 L12.9693388,5.99709434 C12.9693388,5.44641434 13.4148801,5 13.9705525,5 L14.0689989,5 C14.6219539,5 15.0702125,5.43817622 15.0702125,5.99709434 L15.0702125,6.09724347 L15.0702125,6.09724347 Z M11.0062316,21.8069893 C11.3892292,23.0207803 12.5274866,23.907863 13.8721061,23.907863 L14.1674453,23.907863 C15.5197507,23.907863 16.6546356,23.0244957 17.0349422,21.8069893 L11.0062316,21.8069893 L11.0062316,21.8069893 Z" id="Rectangle-95" fill="#FFFFFF"></path>
            </g>
        </g>
    </g>
</svg>