<?xml version="1.0" encoding="UTF-8" standalone="no"?>
<svg width="512px" height="512px" viewBox="0 0 512 512" version="1.1" xmlns="http://www.w3.org/2000/svg" xmlns:xlink="http://www.w3.org/1999/xlink">
    <!-- Generator: Sketch 3.7.1 (28215) - http://www.bohemiancoding.com/sketch -->
    <title>pause</title>
    <desc>Created with Sketch.</desc>
    <defs></defs>
    <g id="Page-1" stroke="none" stroke-width="1" fill="none" fill-rule="evenodd">
        <g id="pause" fill="#FF2D55">
            <path d="M256,0 C114.617,0 0,114.617 0,256 C0,397.383 114.617,512 256,512 C397.383,512 512,397.383 512,256 C512,114.617 397.383,0 256,0 L256,0 Z M224,320 C224,328.836 216.844,336 208,336 L176,336 C167.156,336 160,328.836 160,320 L160,192 C160,183.164 167.156,176 176,176 L208,176 C216.844,176 224,183.164 224,192 L224,320 L224,320 Z M352,320 C352,328.836 344.844,336 336,336 L304,336 C295.156,336 288,328.836 288,320 L288,192 C288,183.164 295.156,176 304,176 L336,176 C344.844,176 352,183.164 352,192 L352,320 L352,320 Z" id="Shape"></path>
        </g>
    </g>
</svg>