<?xml version="1.0" encoding="UTF-8" standalone="no"?>
<svg width="23px" height="23px" viewBox="0 0 23 23" version="1.1" xmlns="http://www.w3.org/2000/svg" xmlns:xlink="http://www.w3.org/1999/xlink">
    <!-- Generator: Sketch 3.7.1 (28215) - http://www.bohemiancoding.com/sketch -->
    <title>Oval 238</title>
    <desc>Created with Sketch.</desc>
    <defs></defs>
    <g id="Page-1" stroke="none" stroke-width="1" fill="none" fill-rule="evenodd">
        <g id="Breast-Health-3" transform="translate(-176.000000, -494.000000)" fill="#FFFFFF">
            <path d="M178.472778,498.374687 C176.924314,500.333799 176,502.808957 176,505.5 C176,511.851275 181.148725,517 187.5,517 C193.851275,517 199,511.851275 199,505.5 C199,499.148725 193.851275,494 187.5,494 C187.14162,494 186.78707,494.016393 186.437057,494.048471 L186.656012,496.128248 C186.93404,496.103532 187.215546,496.090909 187.5,496.090909 C192.696497,496.090909 196.909091,500.303503 196.909091,505.5 C196.909091,510.696497 192.696497,514.909091 187.5,514.909091 C182.303503,514.909091 178.090909,510.696497 178.090909,505.5 C178.090909,503.268263 178.867897,501.218002 180.166117,499.60497 L182.206217,501.087189 L182.480239,494.825014 L176.609234,497.020743 L178.472778,498.374687 Z" id="Oval-238"></path>
        </g>
    </g>
</svg>