<?xml version="1.0" encoding="UTF-8" standalone="no"?>
<svg width="24px" height="22px" viewBox="0 0 24 22" version="1.1" xmlns="http://www.w3.org/2000/svg" xmlns:xlink="http://www.w3.org/1999/xlink">
    <!-- Generator: Sketch 3.6.1 (26313) - http://www.bohemiancoding.com/sketch -->
    <title>Group 2</title>
    <desc>Created with Sketch.</desc>
    <defs></defs>
    <g id="Page-1" stroke="none" stroke-width="1" fill="none" fill-rule="evenodd">
        <g id="Breast-Health-1" transform="translate(-338.000000, -30.000000)" fill="#FF2D55">
            <g id="Group">
                <g id="Group-2" transform="translate(339.000000, 30.000000)">
                    <path d="M18.4077203,5.32474602 C17.8782998,4.62455569 17.2518862,4.00178903 16.5484466,3.47643482 C16.7853497,2.2030789 16.8792334,1.40772221 16.8792334,1.40772221 C16.8904326,1.32007196 16.8359647,1.20026481 16.7686545,1.15227796 C16.7686545,1.15227796 16.4661618,0.887460321 15.4716999,0.465336277 C14.4772379,0.0432122324 14.076615,0.00957498438 14.076615,0.00957498438 C13.9879791,-0.00529788789 13.8744351,0.0342847378 13.8160492,0.107477682 C13.8160492,0.107477682 13.3137052,0.721922554 12.5678964,1.76820056 C12.0582351,1.68151328 11.5344022,1.63636628 11.0000003,1.63636628 C10.4656329,1.63636628 9.94181316,1.68153591 9.43214948,1.76826408 C8.68631573,0.721947423 8.18395136,0.107477682 8.18395136,0.107477682 C8.1286807,0.038534643 8.00466203,-0.00550943846 7.9233856,0.00957498438 C7.9233856,0.00957498438 7.52276265,0.0432122324 6.52830072,0.465336277 C5.53383879,0.887460321 5.23134609,1.15227796 5.23134609,1.15227796 C5.15907582,1.20570568 5.10867486,1.31487882 5.12076721,1.40772221 C5.12076721,1.40772221 5.21467651,2.20329613 5.45165107,3.47695649 C4.61843771,4.09932897 3.89325557,4.85835866 3.30932222,5.72080252 C2.01565376,5.52593837 1.20838329,5.45911436 1.20838329,5.45911436 C1.12039559,5.45098089 1.00256232,5.50959687 0.956953796,5.57854075 C0.956953796,5.57854075 0.702854316,5.89009119 0.315693639,6.89867923 C-0.0714670381,7.90726728 -0.0911022556,8.30882011 -0.0911022556,8.30882011 C-0.102872722,8.39792101 -0.0593515792,8.51001446 0.0158344164,8.56581038 C0.0158344164,8.56581038 0.673608483,9.06631916 1.78559379,9.79914183 C1.74153435,10.1658528 1.71886289,10.5391349 1.71886289,10.9177037 L1.71886289,11.0822969 C1.71886289,11.6287542 1.76607468,12.1641814 1.85664379,12.6847197 C0.787225907,13.4729432 0.158283491,14.0057211 0.158283491,14.0057211 C0.0903155579,14.0621865 0.0484426088,14.186955 0.0649432033,14.2679558 C0.0649432033,14.2679558 0.105567163,14.6679307 0.54498267,15.654874 C0.984398176,16.6418174 1.25445471,16.9396424 1.25445471,16.9396424 C1.30913558,17.0109692 1.41917171,17.0594571 1.51178992,17.0457463 C1.51178992,17.0457463 2.31283976,16.9369841 3.59228036,16.6752547 C4.12170087,17.375445 4.7481145,17.9982116 5.45155412,18.5235659 C5.2146511,19.7969213 5.12076751,20.5922777 5.12076751,20.5922777 C5.10956827,20.6799279 5.16403618,20.7997352 5.23134632,20.8477221 C5.23134632,20.8477221 5.53383879,21.1125403 6.52830072,21.5346643 C7.52276265,21.9567884 7.92338584,21.9904251 7.92338584,21.9904251 C8.01202171,22.0052978 8.12556577,21.9657151 8.18395166,21.8925222 C8.18395166,21.8925222 8.68629551,21.2780776 9.43210408,20.2318 C9.94176535,20.3184873 10.4655984,20.3636343 11.0000003,20.3636343 C11.5343677,20.3636343 12.0581875,20.3184647 12.5678512,20.2317365 C13.3136847,21.2780528 13.8160489,21.8925222 13.8160489,21.8925222 C13.8713196,21.9614652 13.9953383,22.0055094 14.0766147,21.9904251 C14.0766147,21.9904251 14.4772379,21.9567884 15.4716999,21.5346643 C16.4661618,21.1125403 16.7686543,20.8477221 16.7686543,20.8477221 C16.8409245,20.7942943 16.8913254,20.6851211 16.8792331,20.5922777 C16.8792331,20.5922777 16.7853238,19.7967041 16.5483494,18.5230442 C17.3815629,17.9006717 18.106745,17.1416419 18.6906784,16.279198 C19.9843464,16.474062 20.7916166,16.540886 20.7916166,16.540886 C20.8796043,16.5490194 20.9974376,16.4904035 21.0430462,16.4214596 C21.0430462,16.4214596 21.2971463,16.1099094 21.6843069,15.1013214 C22.0714676,14.0927333 22.0911023,13.6911803 22.0911023,13.6911803 C22.1028727,13.6020793 22.0593514,13.4899859 21.9841655,13.4341899 C21.9841655,13.4341899 21.3263917,12.9336813 20.2144068,12.2008589 C20.2584662,11.8341479 20.2811377,11.4608658 20.2811377,11.0822969 L20.2811377,10.9177037 C20.2811377,10.3712463 20.2339259,9.83581915 20.1433568,9.31528076 C21.2127743,8.52705751 21.8417164,7.99427984 21.8417164,7.99427984 C21.9096843,7.93781438 21.9515574,7.81304589 21.9350568,7.73204507 C21.9350568,7.73204507 21.8944334,7.33206993 21.4550179,6.34512655 C21.0156024,5.35818316 20.7455453,5.06035848 20.7455453,5.06035848 C20.6908644,4.9890317 20.5808282,4.94054378 20.48821,4.95425463 C20.48821,4.95425463 19.6871605,5.0630167 18.4077203,5.32474602 Z M11.0000003,6.09523962 C8.31504138,6.09523962 6.13845213,8.27229035 6.13845213,10.9568925 L6.13845213,11.0431081 C6.13845213,13.7281248 8.32050473,15.904761 11.0000003,15.904761 C13.6849592,15.904761 15.8615485,13.7277102 15.8615485,11.0431081 L15.8615485,10.9568925 C15.8615485,8.27187578 13.6794959,6.09523962 11.0000003,6.09523962 Z" id="Cog"></path>
                </g>
            </g>
        </g>
    </g>
</svg>