<?xml version="1.0" encoding="UTF-8" standalone="no"?>
<svg width="29px" height="30px" viewBox="0 0 29 30" version="1.1" xmlns="http://www.w3.org/2000/svg" xmlns:xlink="http://www.w3.org/1999/xlink">
    <!-- Generator: Sketch 3.6.1 (26313) - http://www.bohemiancoding.com/sketch -->
    <title>Group-3</title>
    <desc>Created with Sketch.</desc>
    <defs></defs>
    <g id="Page-1" stroke="none" stroke-width="1" fill="none" fill-rule="evenodd">
        <g id="Breast-Health-7" transform="translate(-20.000000, -341.000000)">
            <g id="Group-3" transform="translate(19.900000, 341.200000)">
                <rect id="Rectangle-1193" fill="#FF2D55" x="0.1" y="0.5" width="29" height="29" rx="6"></rect>
                <path d="M21.1403475,7.28859601 C21.1992741,7.35705103 21.2835108,7.46324066 21.4037719,7.62762848 C22.7063108,9.40809937 23.5880796,12.2078594 23.5880796,14.8078594 C23.5880796,17.4078594 22.7201171,20.1441106 21.5078736,21.8413152 C21.3462616,22.0675803 21.2310944,22.2078343 21.1512081,22.2946479 C21.036294,22.4780469 20.8323888,22.6 20.6,22.6 C20.2410149,22.6 19.95,22.3089851 19.95,21.95 C19.95,21.9183847 19.9522572,21.8872965 19.9566191,21.8568878 C19.9675565,21.7607213 20.0016624,21.666848 20.0599071,21.5862087 C20.0599071,21.5862087 20.2267421,21.3591553 20.4546387,21.0321325 C21.3145875,19.7981394 22.2762573,17.4078592 22.2900003,14.8078594 C22.2762573,12.2078592 21.3323609,9.93817523 20.4546387,8.58850498 C20.2024473,8.20071124 20.0640987,8.0366355 20.0640987,8.0366355 C19.9871751,7.93584184 19.9495133,7.81272896 19.9511332,7.68870309 C19.9503813,7.67589816 19.95,7.6629936 19.95,7.65 C19.95,7.29101492 20.2410149,7 20.6,7 C20.8252371,7 21.0237167,7.11456241 21.1403475,7.28859601 L21.1403475,7.28859601 Z M18.503938,9.83942383 C18.5300409,9.86499177 18.5547655,9.89287792 18.5778642,9.92306124 C18.5778642,9.92306124 18.6665473,10.0151541 18.8496302,10.3063958 C19.6509545,11.534247 20.2383042,13.1164831 20.256671,14.7535226 C20.2383042,16.5911116 19.8042917,18.0473312 18.8496302,19.3341312 C18.6541683,19.5975964 18.588007,19.6718591 18.588007,19.6718591 C18.5609603,19.7056053 18.5317989,19.7364216 18.5008938,19.7642802 C18.3816688,19.9082694 18.2015468,20 18,20 C17.6410149,20 17.35,19.7089851 17.35,19.35 C17.35,19.1424988 17.4472308,18.9577071 17.5986173,18.8386997 C17.6665878,18.7541419 17.7830037,18.612325 17.9608032,18.4048342 C18.7825921,17.4458125 18.9285598,16.3023106 18.9374372,14.7535225 C18.9285598,13.4620837 18.4746673,12.1584717 17.8614624,11.1533509 C17.6218044,10.8075488 17.5222762,10.6925395 17.5222762,10.6925395 C17.5194764,10.6889323 17.5167196,10.685301 17.5140057,10.6816464 C17.4119753,10.566853 17.35,10.415664 17.35,10.25 C17.35,9.89101492 17.6410149,9.6 18,9.6 C18.2032697,9.6 18.3847468,9.69330564 18.503938,9.83942383 L18.503938,9.83942383 Z M9.89411764,10.9126668 L5.82832941,10.9126668 C5.37072941,10.9126668 5,11.3050316 5,11.7893367 L5,17.8106634 C5,18.2949684 5.37072941,18.6873332 5.82832941,18.6873332 L9.89411764,18.6873332 L14.4939765,22.473718 C14.8628706,22.7773798 15.4,22.4989692 15.4,22.0049522 L15.4,7.59504783 C15.4,7.1010308 14.8628706,6.82262015 14.4939765,7.126282 L9.89411764,10.9126668 L9.89411764,10.9126668 Z" id="Rectangle-950-Copy" fill="#FFFFFF"></path>
            </g>
        </g>
    </g>
</svg>