<?xml version="1.0" encoding="UTF-8" standalone="no"?>
<svg width="512px" height="512px" viewBox="0 0 512 512" version="1.1" xmlns="http://www.w3.org/2000/svg" xmlns:xlink="http://www.w3.org/1999/xlink">
    <!-- Generator: Sketch 3.7.1 (28215) - http://www.bohemiancoding.com/sketch -->
    <title>stop</title>
    <desc>Created with Sketch.</desc>
    <defs></defs>
    <g id="Page-1" stroke="none" stroke-width="1" fill="none" fill-rule="evenodd">
        <g id="stop" fill="#FF2D55">
            <path d="M256,0 C114.617,0 0,114.617 0,256 C0,397.383 114.617,512 256,512 C397.383,512 512,397.383 512,256 C512,114.617 397.383,0 256,0 L256,0 Z M336,320 C336,328.836 328.844,336 320,336 L192,336 C183.156,336 176,328.836 176,320 L176,192 C176,183.164 183.156,176 192,176 L320,176 C328.844,176 336,183.164 336,192 L336,320 L336,320 Z" id="Shape"></path>
        </g>
    </g>
</svg>