<?xml version="1.0" encoding="UTF-8" standalone="no"?>
<svg width="73px" height="116px" viewBox="0 0 73 116" version="1.1" xmlns="http://www.w3.org/2000/svg" xmlns:xlink="http://www.w3.org/1999/xlink">
    <!-- Generator: Sketch 3.7 (28169) - http://www.bohemiancoding.com/sketch -->
    <title>Group 3</title>
    <desc>Created with Sketch.</desc>
    <defs></defs>
    <g id="Page-1" stroke="none" stroke-width="1" fill="none" fill-rule="evenodd">
        <g id="Breast-Health-6" transform="translate(-302.000000, -179.000000)">
            <g id="Action-message" transform="translate(228.000000, 179.000000)">
                <g id="Archive" transform="translate(74.000000, 0.000000)">
                    <g id="Group-3">
                        <rect id="Rectangle-125" fill="#FE3824" x="0" y="0" width="73" height="116"></rect>
                        <path d="M28,49 L46,49 L44.662666,69.5057885 C44.572828,70.8833035 43.3725621,72 42.0062169,72 L31.9937831,72 C30.6165047,72 29.4276519,70.8906622 29.337334,69.5057885 L28,49 Z M27,47 C27,46.4477153 27.4500881,46 28.0087848,46 L31.9924316,46 C32.2727539,46 32.6384277,45.8154297 32.8035474,45.5952702 L33.6964526,44.4047298 C33.8640972,44.1812037 34.2278805,44 34.4910052,44 L39.5089948,44 C39.7801695,44 40.1384277,44.1845703 40.3035474,44.4047298 L41.1964526,45.5952702 C41.3640972,45.8187963 41.7224185,46 42.0075684,46 L45.9912152,46 C46.5483517,46 47,46.4438648 47,47 L47,47.4953156 C47,47.7740451 46.7753906,48 46.5056152,48 L27.4943848,48 C27.2213436,48 27,47.785965 27,47.4953156 L27,47 Z M36.5,51 L37.5,51 L37.5,68 L36.5,68 L36.5,51 Z M41,51 L42,51 L41,68 L40,68 L41,51 Z M32,51 L33,51 L34,68 L33,68 L32,51 Z" id="Icon" fill="#FFFFFF"></path>
                    </g>
                </g>
            </g>
        </g>
    </g>
</svg>